<svg width="350" height="354" viewBox="0 0 350 354" fill="none" xmlns="http://www.w3.org/2000/svg">
<g clip-path="url(#clip0)">
<path d="M232.799 354H19.1041C14.0392 353.994 9.18325 351.946 5.60177 348.304C2.02029 344.661 0.00571726 339.723 0 334.573V19.4272C0.00571726 14.2765 2.02029 9.33855 5.60177 5.69651C9.18325 2.05447 14.0392 0.00581393 19.1041 0H232.799C237.864 0.00580672 242.72 2.05446 246.301 5.6965C249.883 9.33854 251.897 14.2765 251.903 19.4272V334.573C251.897 339.723 249.883 344.661 246.301 348.304C242.72 351.946 237.864 353.994 232.799 354Z" fill="#3F3D56"/>
<path d="M233.175 341.605H18.728C17.1666 341.603 15.6698 340.972 14.5658 339.849C13.4617 338.726 12.8407 337.204 12.8389 335.616V18.3836C12.8407 16.7959 13.4617 15.2737 14.5658 14.151C15.6698 13.0284 17.1666 12.3968 18.728 12.395H233.175C234.736 12.3968 236.233 13.0284 237.337 14.151C238.441 15.2737 239.062 16.7959 239.064 18.3836V335.616C239.062 337.204 238.441 338.726 237.337 339.849C236.233 340.972 234.736 341.603 233.175 341.605Z" fill="white"/>
<path d="M125.139 7.6022C126.037 7.6022 126.764 6.86228 126.764 5.94954C126.764 5.0368 126.037 4.29688 125.139 4.29688C124.241 4.29688 123.514 5.0368 123.514 5.94954C123.514 6.86228 124.241 7.6022 125.139 7.6022Z" fill="white"/>
<path d="M183.154 146.554L176.054 124.933L175.934 124.557L205.831 105.353L207.42 107.531L215.746 118.933L212.703 128.154L204.836 151.98L204.491 153.027L219.06 164.042C219.637 165.125 220.117 166.112 220.507 167.019C224.856 177.097 218.418 176.639 218.418 176.639L188.79 163.725L183.154 146.554Z" fill="#FFB7B7"/>
<path d="M198.839 150.58L197.532 146.599L191.122 127.06L189.787 122.987L188.665 119.579L203.283 110.186L218.562 100.375L228.477 113.954L225.472 123.06L224.011 127.484L221.753 134.327L217.222 148.049L231.791 159.063C232.893 161.029 233.763 163.12 234.383 165.293C234.636 166.2 234.757 167.14 234.74 168.083C234.763 168.566 234.686 169.048 234.513 169.498C234.34 169.948 234.075 170.355 233.736 170.693C233.397 171.032 232.991 171.293 232.545 171.46C232.099 171.626 231.623 171.695 231.149 171.661L201.521 158.747L198.839 150.58Z" fill="#FFB7B7"/>
<path opacity="0.15" d="M197.449 151.461L195.729 133.03L204.297 128.306L204.858 129.358L196.973 133.705L198.568 150.791L216.085 162.991L215.421 163.977L197.449 151.461Z" fill="black"/>
<path opacity="0.15" d="M216.138 150.844L215.439 151.806L233.117 165.088L233.816 164.126L216.138 150.844Z" fill="black"/>
<path d="M215.084 168.911L126.153 105.336L36.3132 168.318L124.813 206.321L215.084 168.911Z" fill="white"/>
<path d="M151.413 114.948L181.359 85.1737L234.918 81.494L301.493 146.143L350 173.138L336.335 214.003L277.788 185.741C265.868 184.851 258.198 180.828 253.347 176.598C251.679 175.146 250.176 173.508 248.865 171.716C247.429 169.817 246.309 167.69 245.549 165.423L221.753 134.327L216.847 127.91L213.67 123.758L203.283 110.186L202.536 109.21L184.891 108.735L175.708 120.995L169.257 129.598C169.107 132.629 168.031 135.535 166.179 137.914C160.395 145.069 148.666 143.672 148.666 143.672L151.413 114.948Z" fill="#FFB7B7"/>
<path d="M36.656 168.26H36.72L73.4493 184.209L123.702 206.03C123.899 206.114 124.11 206.158 124.323 206.159C124.536 206.16 124.747 206.118 124.944 206.036L176.79 184.163L214.422 168.286L214.48 168.26H214.544C215.137 168.26 215.707 168.501 216.127 168.928C216.546 169.355 216.783 169.933 216.783 170.537V269.444C216.783 270.048 216.546 270.627 216.127 271.054C215.707 271.481 215.137 271.721 214.544 271.722H36.656C36.0622 271.721 35.4929 271.481 35.0731 271.054C34.6532 270.627 34.417 270.048 34.4164 269.444V170.537C34.417 169.933 34.6532 169.355 35.0731 168.928C35.4929 168.501 36.0622 168.26 36.656 168.26Z" fill="white"/>
<path d="M36.4963 168.911C36.5616 168.911 36.6254 168.89 36.6789 168.852L125.162 106.188C125.431 105.999 125.751 105.897 126.079 105.898C126.406 105.898 126.726 106.001 126.995 106.192L214.84 168.852C214.909 168.901 214.995 168.92 215.079 168.905C215.162 168.89 215.236 168.842 215.285 168.772C215.334 168.701 215.353 168.614 215.338 168.529C215.324 168.444 215.277 168.368 215.207 168.319L127.362 105.659C126.986 105.392 126.538 105.248 126.08 105.247C125.621 105.247 125.173 105.389 124.796 105.654L36.3132 168.318C36.2574 168.358 36.2154 168.414 36.1934 168.48C36.1714 168.546 36.1705 168.617 36.1909 168.683C36.2114 168.749 36.252 168.806 36.3069 168.847C36.3619 168.888 36.4282 168.911 36.4963 168.911L36.4963 168.911Z" fill="#3F3D56"/>
<path d="M209.82 171.132L125.991 107.954L41.5273 175.627L121.673 223.942L165.185 213.856L209.82 171.132Z" fill="#E6E6E6"/>
<path d="M161.512 253.784H202.925C203.438 253.784 203.93 253.577 204.293 253.209C204.655 252.84 204.86 252.341 204.86 251.819C204.861 251.298 204.658 250.797 204.297 250.428C203.935 250.058 203.443 249.85 202.931 249.849H161.512C160.999 249.849 160.507 250.055 160.144 250.424C159.781 250.792 159.577 251.292 159.576 251.813C159.575 252.335 159.778 252.835 160.14 253.205C160.502 253.574 160.993 253.782 161.506 253.784H161.512Z" fill="#6C63FF"/>
<path d="M188.067 245.325H202.925C203.438 245.325 203.93 245.118 204.292 244.75C204.655 244.381 204.86 243.881 204.86 243.36C204.861 242.839 204.658 242.338 204.297 241.969C203.935 241.599 203.443 241.391 202.931 241.39H188.067C187.554 241.389 187.062 241.596 186.699 241.965C186.336 242.333 186.132 242.833 186.131 243.354C186.131 243.876 186.333 244.376 186.695 244.746C187.057 245.115 187.548 245.323 188.061 245.325H188.067Z" fill="#6C63FF"/>
<path d="M124.813 206.321C125.128 206.321 125.439 206.259 125.731 206.138L177.43 184.324V116.041C177.43 115.437 177.194 114.858 176.774 114.431C176.354 114.004 175.785 113.764 175.191 113.763H76.0088C75.4151 113.764 74.8458 114.004 74.426 114.431C74.0061 114.858 73.7699 115.437 73.7692 116.041V184.371L73.8664 184.414L123.867 206.127C124.166 206.255 124.488 206.321 124.813 206.321Z" fill="white"/>
<path d="M123.804 206.277L73.6093 184.479V116.041C73.61 115.394 73.8631 114.774 74.3129 114.316C74.7628 113.859 75.3727 113.601 76.0089 113.601H175.191C175.827 113.601 176.437 113.859 176.887 114.316C177.337 114.774 177.59 115.394 177.59 116.041V184.432L125.792 206.289C125.154 206.552 124.439 206.548 123.804 206.277H123.804ZM176.951 116.041C176.95 115.566 176.764 115.112 176.435 114.776C176.105 114.441 175.657 114.252 175.191 114.251H76.0088C75.5423 114.252 75.0951 114.441 74.7652 114.776C74.4353 115.112 74.2497 115.566 74.2492 116.041V184.049L124.054 205.678C124.531 205.882 125.068 205.885 125.548 205.687L176.951 183.998L176.951 116.041Z" fill="#3F3D56"/>
<path d="M34.8964 170.537V269.444C34.897 270.048 35.1332 270.627 35.5531 271.054C35.9729 271.481 36.5422 271.721 37.136 271.722H215.024C215.617 271.721 216.187 271.481 216.607 271.054C217.026 270.627 217.263 270.048 217.263 269.444V170.537C217.263 169.933 217.026 169.355 216.607 168.928C216.187 168.501 215.617 168.26 215.024 168.26H214.96L214.902 168.286L177.271 184.163L125.424 206.036C125.227 206.118 125.016 206.16 124.803 206.159C124.59 206.158 124.379 206.114 124.183 206.03L73.9293 184.208L37.2 168.26H37.136C36.5422 168.26 35.9729 168.501 35.5531 168.928C35.1332 169.355 34.897 169.933 34.8964 170.537ZM35.5363 170.537C35.5372 170.117 35.6973 169.714 35.9834 169.411C36.2694 169.108 36.6593 168.929 37.0719 168.91L73.9293 184.915L123.93 206.628C124.486 206.866 125.112 206.869 125.67 206.638L177.271 184.866L215.084 168.91C215.498 168.927 215.889 169.106 216.176 169.409C216.462 169.712 216.623 170.117 216.623 170.537V269.444C216.623 269.876 216.455 270.289 216.155 270.594C215.855 270.899 215.448 271.071 215.024 271.071H37.136C36.7117 271.071 36.305 270.899 36.005 270.594C35.705 270.289 35.5364 269.876 35.5363 269.444V170.537Z" fill="#3F3D56"/>
<path d="M84.6914 139.288H119.885C120.564 139.288 121.215 139.013 121.695 138.525C122.175 138.037 122.445 137.375 122.445 136.685C122.445 135.995 122.175 135.333 121.695 134.844C121.215 134.356 120.564 134.082 119.885 134.082H84.6914C84.0126 134.082 83.3616 134.356 82.8816 134.844C82.4016 135.333 82.1319 135.995 82.1319 136.685C82.1319 137.375 82.4016 138.037 82.8816 138.525C83.3616 139.013 84.0126 139.288 84.6914 139.288Z" fill="#6C63FF"/>
<path d="M84.7126 128.226H101.669C102.348 128.226 102.999 127.952 103.479 127.463C103.959 126.975 104.229 126.313 104.229 125.623C104.229 124.933 103.959 124.271 103.479 123.782C102.999 123.294 102.348 123.02 101.669 123.02H84.7126C84.0337 123.02 83.3827 123.294 82.9027 123.782C82.4227 124.271 82.153 124.933 82.153 125.623C82.153 126.313 82.4227 126.975 82.9027 127.463C83.3827 127.952 84.0337 128.226 84.7126 128.226Z" fill="#6C63FF"/>
<path d="M99.2777 165.316H153.028C153.707 165.316 154.358 165.042 154.838 164.553C155.318 164.065 155.588 163.403 155.588 162.713C155.588 162.023 155.318 161.361 154.838 160.873C154.358 160.384 153.707 160.11 153.028 160.11H99.2777C98.5989 160.11 97.9479 160.384 97.4679 160.873C96.9879 161.361 96.7182 162.023 96.7182 162.713C96.7182 163.403 96.9879 164.065 97.4679 164.553C97.9479 165.042 98.5989 165.316 99.2777 165.316Z" fill="#CCCCCC"/>
<path d="M99.2777 177.354H153.028C153.707 177.354 154.358 177.08 154.838 176.591C155.318 176.103 155.588 175.441 155.588 174.751C155.588 174.061 155.318 173.399 154.838 172.911C154.358 172.422 153.707 172.148 153.028 172.148H99.2777C98.5989 172.148 97.9479 172.422 97.4679 172.911C96.9879 173.399 96.7182 174.061 96.7182 174.751C96.7182 175.441 96.9879 176.103 97.4679 176.591C97.9479 177.08 98.5989 177.354 99.2777 177.354Z" fill="#CCCCCC"/>
<path opacity="0.1" d="M224.011 127.484L234.687 126.856L277.342 180.314L262.273 177.97L253.347 176.598C251.679 175.146 250.176 173.508 248.865 171.717L238.947 168.722L234.383 165.293C234.67 166.408 224.011 127.484 224.011 127.484Z" fill="black"/>
<path d="M155.771 125.783C156.077 123.783 157.149 121.988 158.752 120.79C160.355 119.591 162.359 119.086 164.327 119.385L175.708 120.995L189.787 122.987L200.667 124.525L213.67 123.758L225.472 123.06L232.445 122.651L278.809 180.757L238.947 168.722L234.383 165.293L214.401 150.285C214.401 150.285 207.854 149.058 197.532 146.599C195.997 146.228 178.623 141.795 170.461 139.383C168.88 138.915 167.461 138.425 166.179 137.914C157.08 134.272 155.259 129.602 155.771 125.783Z" fill="#FFB7B7"/>
<path opacity="0.15" d="M162.289 133.042C162.33 133.037 166.392 132.523 168.126 129.498C169.294 127.46 169.176 124.716 167.777 121.341L168.86 120.877C170.413 124.621 170.506 127.726 169.137 130.108C167.1 133.65 162.613 134.208 162.423 134.23L162.289 133.042Z" fill="black"/>
<path opacity="0.15" d="M203.361 124.964L203.359 123.769L224.271 123.735L202.224 109.717L202.848 108.703L228.361 124.924L203.361 124.964Z" fill="black"/>
</g>
<defs>
<clipPath id="clip0">
<rect width="350" height="354" fill="white"/>
</clipPath>
</defs>
</svg>
