<svg width="600" height="320" viewBox="0 0 600 320" fill="none" xmlns="http://www.w3.org/2000/svg">
<g clip-path="url(#clip0)">
<path d="M553.997 252.493C553.328 253.934 552.662 255.355 551.997 256.757C550.96 258.935 549.937 261.071 548.926 263.164C548.477 264.092 548.027 265.002 547.589 265.913C542.634 276.036 538.007 284.99 534.078 292.354C530.512 299.026 525.218 304.617 518.749 308.54C512.28 312.463 504.876 314.574 497.311 314.653L409.932 315.603H409.01L401.519 315.684L395.112 315.753L375.464 315.966H374.669L364.666 316.076H364.361L302.708 316.744L247.676 317.32L241.275 317.39L201.517 317.822H201.471L175.687 318.098H175.41L93.8789 318.98L69.4887 319.245C67.412 319.269 65.3357 319.165 63.2716 318.934C62.5687 318.853 61.8657 318.761 61.1685 318.651C49.7934 316.896 39.3632 311.295 31.6157 302.783C21.1232 291.242 13.4887 277.776 8.36057 263.164C7.6192 261.055 6.92777 258.92 6.28628 256.757C-11.4662 196.747 10.1756 119.324 49.1261 67.5124C50.7587 65.3459 52.4181 63.2332 54.1044 61.1743L54.1448 61.1282C66.1238 46.4238 79.5548 34.1394 93.8617 25.4043C119.214 9.899 147.303 5.53147 174.932 18.5476C198.308 29.5644 220.134 34.7444 241.292 36.1503C243.429 36.2886 245.567 36.3923 247.693 36.4557C296.226 37.9826 341.711 20.4952 395.123 9.20757C397.25 8.75814 399.382 8.31447 401.531 7.89385C439.634 0.31117 481.904 -3.6876 532.171 4.71904C537.393 5.57219 542.546 6.80465 547.589 8.40666C549.806 9.12114 551.942 9.8894 553.997 10.7114C577.989 20.4721 591.075 38.5069 596.635 61.1052C597.161 63.2025 597.616 65.3363 598.001 67.5067C607.859 121.865 578.986 198.971 553.997 252.493Z" fill="#F2F2F2"/>
<path opacity="0.1" d="M286.379 256.757C286.147 258.912 285.787 261.051 285.301 263.164H339.291V256.757H286.379ZM241.292 292.947L247.693 292.896V277.068C245.498 276.97 243.36 276.872 241.292 276.768V292.947ZM107.085 256.757V263.164H221.459V256.757H107.085ZM596.664 61.1282H554.026V10.7171C551.971 9.88359 549.835 9.11533 547.618 8.41238V61.1282H401.531V7.87653C399.382 8.29715 397.25 8.74081 395.124 9.19024V61.1282H247.693V36.4383C245.567 36.375 243.43 36.2713 241.292 36.133V61.1282H93.8617V25.4043C79.5548 34.1393 66.1238 46.4238 54.1448 61.1282H54.1044V61.1743C52.4143 63.2485 50.7548 65.3613 49.1261 67.5124H54.1044V256.757H6.28052C6.91817 258.919 7.6096 261.055 8.35481 263.164H54.0987V317.107C56.4002 317.811 58.7495 318.348 61.1282 318.715C61.8254 318.824 62.5284 318.916 63.2313 318.997C65.2954 319.228 67.3716 319.332 69.4484 319.308L93.8386 319.043V263.153H241.292V317.436L247.693 317.366V263.164H395.124V315.805L401.531 315.736V263.164H547.59V265.912C548.028 265.002 548.477 264.092 548.926 263.164C549.937 261.071 550.96 258.935 551.997 256.757C552.662 255.359 553.328 253.937 553.997 252.493V67.5354H598.029C597.641 65.3497 597.186 63.214 596.664 61.1282ZM93.8617 256.757V67.5124H241.292V256.757H93.8617ZM247.705 256.757V67.5124H395.124V256.757H247.705ZM547.601 256.757H401.531V67.5124H547.59L547.601 256.757Z" fill="black"/>
<path d="M497.305 307.485V314.975L409.77 315.782L408.837 315.799L375.568 316.105L374.772 316.116L364.66 316.203H364.361L302.72 316.773L201.535 317.712H201.448L175.721 317.954L175.445 317.96L61.1282 319.009V310.366L88.0075 294.232L141.939 293.783L143.091 293.777L143.472 293.771L144.624 293.754L170.518 293.541L171.676 293.535L172.045 293.529L173.197 293.524L181.5 293.454L181.719 293.449L202.203 293.276H202.37L362.206 291.928L366.118 291.899H366.51L369.495 291.87L391.188 291.691L392.34 291.674L393.406 291.662H393.96L400.707 291.611L402.044 291.593L403.836 291.582L409.453 291.53L418.367 291.455L419.519 291.444L421.525 291.432H421.899L464.946 291.063L497.305 307.485Z" fill="#65617D"/>
<path opacity="0.2" d="M497.305 307.485V314.975L409.77 315.782L408.837 315.799L375.568 316.105L374.772 316.116L364.66 316.203H364.361L302.72 316.773L201.535 317.712H201.448L175.721 317.954L175.445 317.96L61.1282 319.009V310.366L88.0075 294.232L141.939 293.783L143.091 293.777L143.472 293.771L144.624 293.754L170.518 293.541L171.676 293.535L172.045 293.529L173.197 293.524L181.5 293.454L181.719 293.449L202.203 293.276H202.37L362.206 291.928L366.118 291.899H366.51L369.495 291.87L391.188 291.691L392.34 291.674L393.406 291.662H393.96L400.707 291.611L402.044 291.593L403.836 291.582L409.453 291.53L418.367 291.455L419.519 291.444L421.525 291.432H421.899L464.946 291.063L497.305 307.485Z" fill="black"/>
<path d="M170.611 278.681V292.792C170.611 293.46 170.421 294.115 170.065 294.68C169.708 295.245 169.198 295.697 168.594 295.984C168.144 296.202 167.653 296.32 167.153 296.33L147.044 296.756C146.507 296.769 145.975 296.656 145.489 296.428C144.874 296.146 144.354 295.694 143.989 295.125C143.624 294.556 143.431 293.894 143.432 293.218V278.681H170.611Z" fill="#3F3D56"/>
<path opacity="0.1" d="M170.611 278.681V292.792C170.611 293.46 170.421 294.115 170.065 294.68C169.708 295.245 169.198 295.697 168.594 295.984C168.144 296.202 167.653 296.32 167.153 296.33L147.044 296.756C146.507 296.769 145.975 296.656 145.489 296.428C144.874 296.146 144.354 295.694 143.989 295.125C143.624 294.556 143.431 293.894 143.432 293.218V278.681H170.611Z" fill="black"/>
<path d="M171.763 278.681V292.792C171.763 293.46 171.574 294.115 171.217 294.68C170.86 295.245 170.35 295.697 169.746 295.984C169.297 296.202 168.805 296.32 168.306 296.33L148.197 296.756C147.66 296.769 147.127 296.656 146.641 296.428C146.027 296.146 145.506 295.694 145.141 295.125C144.777 294.556 144.583 293.894 144.584 293.218V278.681H171.763Z" fill="#3F3D56"/>
<path d="M419.519 278.675H392.34V296.825H419.519V278.675Z" fill="#3F3D56"/>
<path opacity="0.1" d="M419.519 278.675H392.34V296.825H419.519V278.675Z" fill="black"/>
<path d="M418.367 278.675H391.188V296.825H418.367V278.675Z" fill="#3F3D56"/>
<path opacity="0.1" d="M171.757 278.675V281.539L144.578 282.265V278.675H171.757Z" fill="black"/>
<path d="M219.731 179.979V276.895C219.724 277.486 219.49 278.052 219.077 278.476C218.664 278.9 218.104 279.148 217.512 279.171L107.085 282.109H107.056C106.455 282.102 105.881 281.86 105.455 281.434C105.03 281.009 104.788 280.435 104.781 279.833V179.979C104.788 179.378 105.03 178.803 105.455 178.378C105.881 177.953 106.455 177.711 107.056 177.703H217.455C218.056 177.711 218.631 177.953 219.056 178.378C219.481 178.803 219.723 179.378 219.731 179.979Z" fill="#65617D"/>
<path opacity="0.1" d="M107.085 177.703V282.109H107.056C106.455 282.102 105.881 281.86 105.455 281.434C105.03 281.009 104.788 280.435 104.781 279.833V179.979C104.788 179.378 105.03 178.803 105.455 178.378C105.881 177.953 106.455 177.711 107.056 177.703H107.085Z" fill="black"/>
<path d="M112.121 183.892H214.395V269.312L112.121 271.617V183.892Z" fill="#6C63FF"/>
<path opacity="0.1" d="M418.367 278.675V282.368L391.188 281.642V278.675H418.367Z" fill="black"/>
<path d="M454.241 179.979V279.833C454.233 280.439 453.987 281.018 453.555 281.444C453.124 281.87 452.542 282.109 451.936 282.109L341.486 279.171C340.894 279.148 340.334 278.9 339.921 278.476C339.509 278.052 339.274 277.486 339.267 276.895V179.979C339.275 179.378 339.517 178.803 339.942 178.378C340.367 177.953 340.942 177.711 341.543 177.703H451.942C452.547 177.705 453.127 177.944 453.558 178.37C453.988 178.796 454.233 179.374 454.241 179.979Z" fill="#65617D"/>
<path opacity="0.1" d="M454.241 179.979V279.833C454.233 280.439 453.987 281.018 453.556 281.444C453.124 281.87 452.542 282.109 451.936 282.109V177.703C452.542 177.703 453.124 177.942 453.556 178.368C453.987 178.794 454.233 179.373 454.241 179.979Z" fill="black"/>
<path d="M446.889 183.892H344.615V269.312L446.889 271.617V183.892Z" fill="#6C63FF"/>
<path d="M336.41 179.979V276.895C336.403 277.486 336.168 278.052 335.755 278.476C335.343 278.9 334.782 279.148 334.191 279.171L223.764 282.109C223.158 282.109 222.576 281.87 222.145 281.444C221.713 281.018 221.467 280.439 221.459 279.833V179.979C221.467 179.378 221.709 178.803 222.134 178.378C222.559 177.953 223.134 177.711 223.735 177.703H334.134C334.735 177.711 335.31 177.953 335.735 178.378C336.16 178.803 336.402 179.378 336.41 179.979Z" fill="#65617D"/>
<path d="M228.8 183.892H331.074V269.312L228.8 271.617V183.892Z" fill="#6C63FF"/>
<path opacity="0.1" d="M497.305 307.485V314.975L409.77 315.782L408.837 315.799L375.568 316.105L374.772 316.116L364.66 316.203H364.361L302.72 316.773L201.535 317.712H201.448L175.721 317.954L175.445 317.96L61.1282 319.009V310.366L177.813 309.599H178.089L201.707 309.438H201.817L364.925 308.361H365.092L365.19 308.355H365.461L368.221 308.338H369.062L411.983 308.05L414.518 308.038L415.083 308.032L497.305 307.485Z" fill="black"/>
<path d="M280.755 201.367C297.09 201.367 310.331 188.126 310.331 171.791C310.331 155.457 297.09 142.216 280.755 142.216C264.421 142.216 251.179 155.457 251.179 171.791C251.179 188.126 264.421 201.367 280.755 201.367Z" fill="#FBBEBE"/>
<path d="M310.337 217.317C310.337 217.317 253.006 224.231 258.48 217.317C260.462 214.816 261.009 207.406 260.9 198.965C260.865 196.401 260.773 193.745 260.64 191.1C260.007 178.424 258.48 166.035 258.48 166.035C258.48 166.035 308.608 142.412 302.847 161.138C300.542 168.703 301.297 179.328 303.048 189.302C303.561 192.212 304.154 195.064 304.777 197.772C306.295 204.378 308.151 210.901 310.337 217.317Z" fill="#FBBEBE"/>
<path d="M291.628 214.971C298.26 213.744 305.284 211.514 311.524 214.084C313.166 214.758 314.676 215.744 316.358 216.308C318.04 216.873 319.884 217.011 321.636 217.409C327.79 218.803 332.779 223.488 335.983 228.933C339.187 234.378 340.846 240.537 342.471 246.633L346.447 261.516C349.904 274.452 353.361 287.497 354.162 300.87C306.031 303.625 257.79 303.9 209.63 301.694C212.764 295.736 215.968 289.415 215.703 282.68C215.438 275.944 211.56 269.301 212.96 262.663C213.853 258.434 216.746 254.948 218.515 251.012C223.557 239.765 219.633 224.628 228.495 216.066C232.482 212.217 238.29 210.759 243.839 210.944C250.914 211.18 258.157 213.387 265.158 214.464C274.123 215.824 282.593 216.631 291.628 214.971Z" fill="#FF6584"/>
<path opacity="0.1" d="M394.651 280.144L394.584 281.105V281.173L394.47 282.719L393.576 295.162L392.493 310.152L392.184 314.374L391.512 323.409V323.523L319.584 324.195L201.548 325.472V326.037H201.454V325.472V325.284L201.756 315.631L202.335 296.768L202.832 280.776L202.879 279.183C202.909 278.221 203.134 277.276 203.541 276.404C203.948 275.532 204.528 274.753 205.247 274.113C205.965 273.473 206.806 272.987 207.719 272.683C208.632 272.379 209.597 272.265 210.556 272.346C213.729 272.615 217.85 272.945 222.777 273.294L224.794 273.442C253.249 275.418 305.837 277.973 358.902 274.787C360.018 274.726 361.141 274.659 362.263 274.578C370.491 274.061 378.713 273.395 386.853 272.562C387.882 272.454 388.923 272.573 389.901 272.91C390.879 273.248 391.771 273.796 392.514 274.516C393.258 275.236 393.834 276.109 394.204 277.076C394.573 278.043 394.726 279.079 394.651 280.111V280.144Z" fill="black"/>
<path d="M201.517 325.65V325.085L319.573 323.801L391.501 323.129H391.703V323.015L392.375 313.98L392.664 309.947L393.767 294.748L394.634 282.715V282.419C394.674 281.865 394.649 281.307 394.56 280.759C394.564 280.737 394.564 280.714 394.56 280.692C394.375 279.557 393.913 278.486 393.215 277.572C392.475 276.623 391.505 275.878 390.397 275.408C389.29 274.937 388.08 274.757 386.883 274.884C378.742 275.717 370.521 276.383 362.293 276.9C361.17 276.981 360.048 277.048 358.932 277.109C305.867 280.261 253.279 277.707 224.823 275.764L222.807 275.616C217.879 275.267 213.759 274.944 210.586 274.668C208.84 274.521 207.102 275.026 205.707 276.085C204.311 277.144 203.358 278.682 203.03 280.403C202.962 280.766 202.922 281.135 202.909 281.505L202.452 296.401L201.827 315.271L201.531 324.924V325.112V325.677L201.517 325.65Z" fill="#3F3D56"/>
<path opacity="0.1" d="M394.839 283.748L394.012 294.053L392.782 309.413L392.473 313.258L391.801 321.87L391.76 322.3V322.414L391.66 323.409L391.734 322.414H391.539L319.611 323.086L201.535 324.363V324.175L201.864 314.522L202.536 295.659L202.966 283.122C202.988 282.409 203.187 281.713 203.546 281.096C203.905 280.48 204.413 279.963 205.023 279.593C205.785 279.127 206.675 278.915 207.564 278.988C208.976 279.103 210.71 279.237 212.734 279.385C216.021 279.627 220.074 279.909 224.793 280.205C233.532 280.756 244.496 281.348 257.06 281.832C292.016 283.176 339.206 283.627 384.03 279.701C386.047 279.526 388.13 279.331 390.167 279.136C390.973 279.056 391.786 279.21 392.507 279.58C392.711 279.681 392.904 279.803 393.085 279.943C393.67 280.367 394.134 280.937 394.429 281.596C394.498 281.728 394.554 281.865 394.597 282.007C394.799 282.564 394.882 283.157 394.839 283.748Z" fill="black"/>
<path opacity="0.1" d="M176.293 290.954V293.098C176.293 293.878 176.072 294.642 175.656 295.301C175.239 295.96 174.644 296.488 173.94 296.822L146.984 297.34C146.267 297.011 145.66 296.484 145.234 295.82C144.809 295.156 144.583 294.384 144.584 293.596V291.579L176.293 290.954Z" fill="black"/>
<path d="M177.063 297.9L141.939 298.572V292.744L177.063 292.072V297.9Z" fill="#3F3D56"/>
<path opacity="0.1" d="M177.063 297.9L141.939 298.572V292.744L177.063 292.072V297.9Z" fill="black"/>
<path d="M178.215 297.9L143.092 298.572V292.744L178.215 292.072V297.9Z" fill="#3F3D56"/>
<path opacity="0.1" d="M391.361 292.106V294.251C391.361 295.03 391.581 295.794 391.998 296.453C392.414 297.113 393.009 297.64 393.714 297.975L420.67 298.492C421.387 298.164 421.994 297.636 422.419 296.972C422.845 296.309 423.071 295.537 423.07 294.748V292.731L391.361 292.106Z" fill="black"/>
<path opacity="0.1" d="M391.073 299.052L426.197 299.724V293.896L391.073 293.224V299.052Z" fill="black"/>
<path d="M389.92 299.052L425.044 299.724V293.896L389.92 293.224V299.052Z" fill="#3F3D56"/>
<path d="M265.584 189.187C265.638 193.892 263.46 198.329 261.611 202.678C254.881 218.521 251.966 235.724 253.101 252.9C253.592 260.294 254.835 267.689 253.592 275.016C252.348 282.343 247.925 289.65 240.819 291.755C252.604 298.779 268.555 298.04 279.647 289.966C285.556 285.664 289.959 279.661 294.268 273.759C293.756 284.361 290.686 294.682 285.321 303.841C295.02 302.982 304.43 300.096 312.943 295.369C321.455 290.642 328.88 284.18 334.736 276.401C337.633 272.495 340.154 268.207 341.27 263.474C343.347 254.735 340.45 245.653 338.238 236.921C336.39 229.621 335.005 222.212 334.091 214.738C333.801 212.345 333.566 209.884 334.158 207.545C334.83 204.809 336.625 202.497 337.949 200.003C341.714 192.917 341.801 184.34 339.872 176.556C337.942 168.771 334.165 161.592 330.42 154.5C327.422 148.813 324.169 142.864 318.683 139.523C315.255 137.439 311.289 136.572 307.336 135.731L290.282 132.081C286.551 131.281 282.712 130.481 278.941 131.066C272.575 132.061 268.092 136.659 264.152 141.378C261.067 145.048 253.525 151.939 252.993 156.745C252.509 161.175 256.422 168.596 257.087 173.268C257.961 179.318 258.58 177.302 261.994 181.012C264.152 183.311 265.544 185.967 265.584 189.187Z" fill="#3F3D56"/>
<path d="M182.62 192.308H115.667C115.578 192.308 115.492 192.272 115.429 192.209C115.366 192.146 115.331 192.061 115.331 191.972C115.331 191.883 115.366 191.797 115.429 191.734C115.492 191.671 115.578 191.636 115.667 191.636H182.62C182.709 191.636 182.795 191.671 182.858 191.734C182.921 191.797 182.956 191.883 182.956 191.972C182.956 192.061 182.921 192.146 182.858 192.209C182.795 192.272 182.709 192.308 182.62 192.308Z" fill="#F2F2F2"/>
<path d="M182.62 197.494H115.667C115.578 197.494 115.492 197.458 115.429 197.395C115.366 197.332 115.331 197.247 115.331 197.157C115.331 197.068 115.366 196.983 115.429 196.92C115.492 196.857 115.578 196.821 115.667 196.821H182.62C182.709 196.821 182.795 196.857 182.858 196.92C182.921 196.983 182.956 197.068 182.956 197.157C182.956 197.247 182.921 197.332 182.858 197.395C182.795 197.458 182.709 197.494 182.62 197.494Z" fill="#F2F2F2"/>
<path d="M182.62 202.679H115.667C115.578 202.679 115.492 202.644 115.429 202.581C115.366 202.518 115.331 202.432 115.331 202.343C115.331 202.254 115.366 202.169 115.429 202.106C115.492 202.042 115.578 202.007 115.667 202.007H182.62C182.709 202.007 182.795 202.042 182.858 202.106C182.921 202.169 182.956 202.254 182.956 202.343C182.956 202.432 182.921 202.518 182.858 202.581C182.795 202.644 182.709 202.679 182.62 202.679Z" fill="#F2F2F2"/>
</g>
<defs>
<clipPath id="clip0">
<rect width="600" height="319.308" fill="white"/>
</clipPath>
</defs>
</svg>
